<svg width="580" height="604" viewBox="0 0 580 604" fill="none" xmlns="http://www.w3.org/2000/svg">
<path d="M37.9688 603.281C26.25 603.281 16.875 600.234 9.84375 594.141C3.28125 587.578 0 580.078 0 571.641C0 563.203 3.28125 555.938 9.84375 549.844C16.875 543.281 26.25 540 37.9688 540H181.406C193.125 540 202.266 543.281 208.828 549.844C215.859 555.938 219.375 563.203 219.375 571.641C219.375 580.078 215.859 587.578 208.828 594.141C202.266 600.234 193.125 603.281 181.406 603.281H37.9688ZM397.969 603.281C386.25 603.281 376.875 600.234 369.844 594.141C363.281 587.578 360 580.078 360 571.641C360 563.203 363.281 555.938 369.844 549.844C376.875 543.281 386.25 540 397.969 540H541.406C553.125 540 562.266 543.281 568.828 549.844C575.859 555.938 579.375 563.203 579.375 571.641C579.375 580.078 575.859 587.578 568.828 594.141C562.266 600.234 553.125 603.281 541.406 603.281H397.969ZM37.9688 513.281C26.25 513.281 16.875 510.234 9.84375 504.141C3.28125 497.578 0 490.078 0 481.641C0 473.203 3.28125 465.938 9.84375 459.844C16.875 453.281 26.25 450 37.9688 450H181.406C193.125 450 202.266 453.281 208.828 459.844C215.859 465.938 219.375 473.203 219.375 481.641C219.375 490.078 215.859 497.578 208.828 504.141C202.266 510.234 193.125 513.281 181.406 513.281H37.9688ZM397.969 513.281C386.25 513.281 376.875 510.234 369.844 504.141C363.281 497.578 360 490.078 360 481.641C360 473.203 363.281 465.938 369.844 459.844C376.875 453.281 386.25 450 397.969 450H541.406C553.125 450 562.266 453.281 568.828 459.844C575.859 465.938 579.375 473.203 579.375 481.641C579.375 490.078 575.859 497.578 568.828 504.141C562.266 510.234 553.125 513.281 541.406 513.281H397.969ZM37.9688 423.281C26.25 423.281 16.875 420.234 9.84375 414.141C3.28125 407.578 0 400.078 0 391.641C0 383.203 3.28125 375.938 9.84375 369.844C16.875 363.281 26.25 360 37.9688 360H181.406C193.125 360 202.266 363.281 208.828 369.844C215.859 375.938 219.375 383.203 219.375 391.641C219.375 400.078 215.859 407.578 208.828 414.141C202.266 420.234 193.125 423.281 181.406 423.281H37.9688ZM397.969 423.281C386.25 423.281 376.875 420.234 369.844 414.141C363.281 407.578 360 400.078 360 391.641C360 383.203 363.281 375.938 369.844 369.844C376.875 363.281 386.25 360 397.969 360H541.406C553.125 360 562.266 363.281 568.828 369.844C575.859 375.938 579.375 383.203 579.375 391.641C579.375 400.078 575.859 407.578 568.828 414.141C562.266 420.234 553.125 423.281 541.406 423.281H397.969ZM37.9688 333.281C26.25 333.281 16.875 330.234 9.84375 324.141C3.28125 317.578 0 310.078 0 301.641C0 293.203 3.28125 285.938 9.84375 279.844C16.875 273.281 26.25 270 37.9688 270H541.406C553.125 270 562.266 273.281 568.828 279.844C575.859 285.938 579.375 293.203 579.375 301.641C579.375 310.078 575.859 317.578 568.828 324.141C562.266 330.234 553.125 333.281 541.406 333.281H37.9688ZM37.9688 243.281C26.25 243.281 16.875 240.234 9.84375 234.141C3.28125 227.578 0 220.078 0 211.641C0 203.203 3.28125 195.937 9.84375 189.844C16.875 183.281 26.25 180 37.9688 180H181.406C193.125 180 202.266 183.281 208.828 189.844C215.859 195.937 219.375 203.203 219.375 211.641C219.375 220.078 215.859 227.578 208.828 234.141C202.266 240.234 193.125 243.281 181.406 243.281H37.9688ZM397.969 243.281C386.25 243.281 376.875 240.234 369.844 234.141C363.281 227.578 360 220.078 360 211.641C360 203.203 363.281 195.937 369.844 189.844C376.875 183.281 386.25 180 397.969 180H541.406C553.125 180 562.266 183.281 568.828 189.844C575.859 195.937 579.375 203.203 579.375 211.641C579.375 220.078 575.859 227.578 568.828 234.141C562.266 240.234 553.125 243.281 541.406 243.281H397.969ZM37.9688 153.281C26.25 153.281 16.875 150.234 9.84375 144.141C3.28125 137.578 0 130.078 0 121.641C0 113.203 3.28125 105.937 9.84375 99.8438C16.875 93.2812 26.25 90 37.9688 90H181.406C193.125 90 202.266 93.2812 208.828 99.8438C215.859 105.937 219.375 113.203 219.375 121.641C219.375 130.078 215.859 137.578 208.828 144.141C202.266 150.234 193.125 153.281 181.406 153.281H37.9688ZM397.969 153.281C386.25 153.281 376.875 150.234 369.844 144.141C363.281 137.578 360 130.078 360 121.641C360 113.203 363.281 105.937 369.844 99.8438C376.875 93.2812 386.25 90 397.969 90H541.406C553.125 90 562.266 93.2812 568.828 99.8438C575.859 105.937 579.375 113.203 579.375 121.641C579.375 130.078 575.859 137.578 568.828 144.141C562.266 150.234 553.125 153.281 541.406 153.281H397.969ZM37.9688 63.2812C26.25 63.2812 16.875 60.2344 9.84375 54.1406C3.28125 47.5781 0 40.0781 0 31.6406C0 23.2031 3.28125 15.9375 9.84375 9.84375C16.875 3.28125 26.25 0 37.9688 0H181.406C193.125 0 202.266 3.28125 208.828 9.84375C215.859 15.9375 219.375 23.2031 219.375 31.6406C219.375 40.0781 215.859 47.5781 208.828 54.1406C202.266 60.2344 193.125 63.2812 181.406 63.2812H37.9688ZM397.969 63.2812C386.25 63.2812 376.875 60.2344 369.844 54.1406C363.281 47.5781 360 40.0781 360 31.6406C360 23.2031 363.281 15.9375 369.844 9.84375C376.875 3.28125 386.25 0 397.969 0H541.406C553.125 0 562.266 3.28125 568.828 9.84375C575.859 15.9375 579.375 23.2031 579.375 31.6406C579.375 40.0781 575.859 47.5781 568.828 54.1406C562.266 60.2344 553.125 63.2812 541.406 63.2812H397.969Z" fill="black"/>
</svg>
