<svg width="1024" height="1024" viewBox="0 0 1024 1024" fill="none" xmlns="http://www.w3.org/2000/svg">
<path d="M318.663 862.68C296.583 862.68 276.957 853.173 259.783 834.16C242.61 814.533 234.023 784.173 234.023 743.08C234.023 714.253 237.703 685.426 245.063 656.6C253.037 627.773 261.01 601.4 268.983 577.48C281.25 538.226 291.983 502.04 301.183 468.92C310.383 435.8 314.983 404.213 314.983 374.16C314.983 353.306 312.53 338.893 307.623 330.92C303.33 322.946 297.503 318.96 290.143 318.96C282.17 318.96 273.277 323.253 263.463 331.84C254.263 340.426 245.063 353.613 235.863 371.4L229.423 369.56C230.65 333.986 238.317 303.32 252.423 277.56C266.53 251.8 284.317 231.866 305.783 217.76C327.25 203.653 349.33 196.6 372.023 196.6C397.783 196.6 419.863 207.026 438.263 227.88C456.663 248.12 465.863 283.386 465.863 333.68C465.863 360.053 463.103 387.653 457.583 416.48C452.677 445.306 446.85 474.133 440.103 502.96C460.957 494.373 483.037 488.24 506.343 484.56C529.65 480.88 554.49 479.04 580.863 479.04H604.783C612.757 448.373 619.503 418.32 625.023 388.88C631.157 358.826 634.223 330.92 634.223 305.16C634.223 295.96 633.61 287.373 632.383 279.4C631.77 271.426 630.85 263.76 629.623 256.4V249.04C638.823 232.48 652.01 219.293 669.183 209.48C686.97 199.666 704.757 194.76 722.543 194.76C742.783 194.76 760.57 201.506 775.903 215C791.237 227.88 798.903 248.733 798.903 277.56C798.903 299.026 794.61 326.626 786.023 360.36C778.05 394.093 768.85 428.746 758.423 464.32C746.157 507.866 734.81 550.186 724.383 591.28C714.57 631.76 709.663 666.106 709.663 694.32C709.663 713.333 712.73 728.36 718.863 739.4C724.997 750.44 734.81 755.96 748.303 755.96C766.703 755.96 780.503 747.066 789.703 729.28L795.223 732.04C794.61 757.8 787.557 780.493 774.063 800.12C760.57 819.746 743.703 835.08 723.463 846.12C703.837 857.16 683.597 862.68 662.743 862.68C644.343 862.68 626.863 858.08 610.303 848.88C594.357 839.066 581.17 824.04 570.743 803.8C560.93 783.56 556.023 757.186 556.023 724.68C556.023 703.213 558.17 679.906 562.463 654.76C567.37 629 572.89 602.933 579.023 576.56C550.81 574.72 523.21 573.8 496.223 573.8C482.73 573.8 469.85 574.106 457.583 574.72C445.317 575.333 433.663 576.253 422.623 577.48C417.103 602.013 412.197 626.24 407.903 650.16C404.223 673.466 402.383 696.16 402.383 718.24C402.383 730.506 402.997 742.773 404.223 755.04C406.063 766.693 408.823 778.04 412.503 789.08C402.69 813 388.89 831.4 371.103 844.28C353.93 856.546 336.45 862.68 318.663 862.68Z" fill="black"/>
</svg>
