<?xml version="1.0" encoding="UTF-8"?>
<svg width="1200pt" height="1200pt" version="1.1" viewBox="0 0 1200 1200" xmlns="http://www.w3.org/2000/svg">
 <path d="m60 0h1080c33.137 0 60 33.137 60 60v1080c0 33.137-26.863 60-60 60h-1080c-33.137 0-60-33.137-60-60v-1080c0-33.137 26.863-60 60-60z" fill="#fff"/>
 <path d="m914.88 600c0 173.9-140.98 314.88-314.88 314.88s-314.88-140.98-314.88-314.88 140.98-314.88 314.88-314.88 314.88 140.98 314.88 314.88zm-409.34-125.95c0-17.391-14.098-31.488-31.488-31.488s-31.488 14.098-31.488 31.488v251.9c0 17.391 14.098 31.488 31.488 31.488s31.488-14.098 31.488-31.488v-94.465h188.93v94.465c0 17.391 14.098 31.488 31.488 31.488s31.488-14.098 31.488-31.488v-251.9c0-17.391-14.098-31.488-31.488-31.488s-31.488 14.098-31.488 31.488v94.461h-188.93z" fill-rule="evenodd"/>
</svg>
